<svg xmlns="http://www.w3.org/2000/svg" version="1.1" xmlns:xlink="http://www.w3.org/1999/xlink" xmlns:svgjs="http://svgjs.dev/svgjs" width="1000" height="446" viewBox="0 0 1000 446"><g transform="matrix(1,0,0,1,-0.606060338107909,-0.01435899259109874)"><svg viewBox="0 0 396 177" data-background-color="#ffffff" preserveAspectRatio="xMidYMid meet" height="446" width="1000" xmlns="http://www.w3.org/2000/svg" xmlns:xlink="http://www.w3.org/1999/xlink"><g id="tight-bounds" transform="matrix(1,0,0,1,0.24000010610927802,0.005699038903671294)"><svg viewBox="0 0 395.52 176.98860243713082" height="176.98860243713082" width="395.52"><g><svg viewBox="0 0 395.52 176.98860243713082" height="176.98860243713082" width="395.52"><g transform="matrix(1,0,0,1,0,99.10843366075952)"><svg viewBox="0 0 395.52 77.8801687763713" height="77.8801687763713" width="395.52"><g id="textblocktransform"><svg viewBox="0 0 395.52 77.8801687763713" height="77.8801687763713" width="395.52" id="textblock"><g><svg viewBox="0 0 395.52 77.8801687763713" height="77.8801687763713" width="395.52"><g transform="matrix(1,0,0,1,0,0)"><svg width="395.52" viewBox="3.9000000953674316 -35 177.74000549316406 35" height="77.8801687763713" data-palette-color="#0074d9"><path d="M27.5 0L5.1 0Q4.6 0 4.25-0.35 3.9-0.7 3.9-1.2L3.9-1.2 3.9-33.75Q3.9-34.3 4.25-34.65 4.6-35 5.1-35L5.1-35 27.1-35Q27.65-35 28-34.65 28.35-34.3 28.35-33.75L28.35-33.75 28.35-30.45Q28.35-29.95 28-29.6 27.65-29.25 27.1-29.25L27.1-29.25 10.65-29.25 10.65-20.4 26-20.4Q26.55-20.4 26.9-20.08 27.25-19.75 27.25-19.2L27.25-19.2 27.25-16.1Q27.25-15.55 26.9-15.23 26.55-14.9 26-14.9L26-14.9 10.65-14.9 10.65-5.75 27.5-5.75Q28.05-5.75 28.4-5.4 28.75-5.05 28.75-4.5L28.75-4.5 28.75-1.2Q28.75-0.7 28.4-0.35 28.05 0 27.5 0L27.5 0ZM40.45 0L36.25 0Q35.7 0 35.35-0.35 35-0.7 35-1.2L35-1.2 35-33.75Q35-34.3 35.35-34.65 35.7-35 36.25-35L36.25-35 40.2-35Q40.9-35 41.25-34.63 41.6-34.25 41.7-34.05L41.7-34.05 51.35-16.05 61.1-34.05Q61.2-34.25 61.55-34.63 61.9-35 62.6-35L62.6-35 66.5-35Q67.05-35 67.4-34.65 67.75-34.3 67.75-33.75L67.75-33.75 67.75-1.2Q67.75-0.7 67.4-0.35 67.05 0 66.5 0L66.5 0 62.3 0Q61.75 0 61.42-0.35 61.1-0.7 61.1-1.2L61.1-1.2 61.1-22.85 54.1-9.5Q53.85-9.05 53.45-8.72 53.05-8.4 52.4-8.4L52.4-8.4 50.35-8.4Q49.65-8.4 49.27-8.72 48.9-9.05 48.65-9.5L48.65-9.5 41.65-22.85 41.65-1.2Q41.65-0.7 41.3-0.35 40.95 0 40.45 0L40.45 0ZM100.64 0L88.19 0Q87.69 0 87.34-0.35 86.99-0.7 86.99-1.2L86.99-1.2 86.99-33.75Q86.99-34.3 87.34-34.65 87.69-35 88.19-35L88.19-35 100.39-35Q105.44-35 108.72-33.45 111.99-31.9 113.67-28.85 115.34-25.8 115.39-21.4L115.39-21.4Q115.49-19.2 115.49-17.5 115.49-15.8 115.39-13.65L115.39-13.65Q115.29-9 113.69-5.98 112.09-2.95 108.87-1.48 105.64 0 100.64 0L100.64 0ZM93.94-29.25L93.94-5.75 100.39-5.75Q103.19-5.75 104.94-6.55 106.69-7.35 107.52-9.13 108.34-10.9 108.39-13.8L108.39-13.8Q108.44-15.3 108.47-16.43 108.49-17.55 108.47-18.68 108.44-19.8 108.39-21.25L108.39-21.25Q108.29-25.35 106.34-27.3 104.39-29.25 100.14-29.25L100.14-29.25 93.94-29.25ZM145.74 0L123.34 0Q122.84 0 122.49-0.35 122.14-0.7 122.14-1.2L122.14-1.2 122.14-33.75Q122.14-34.3 122.49-34.65 122.84-35 123.34-35L123.34-35 145.34-35Q145.89-35 146.24-34.65 146.59-34.3 146.59-33.75L146.59-33.75 146.59-30.45Q146.59-29.95 146.24-29.6 145.89-29.25 145.34-29.25L145.34-29.25 128.89-29.25 128.89-20.4 144.24-20.4Q144.79-20.4 145.14-20.08 145.49-19.75 145.49-19.2L145.49-19.2 145.49-16.1Q145.49-15.55 145.14-15.23 144.79-14.9 144.24-14.9L144.24-14.9 128.89-14.9 128.89-5.75 145.74-5.75Q146.29-5.75 146.64-5.4 146.99-5.05 146.99-4.5L146.99-4.5 146.99-1.2Q146.99-0.7 146.64-0.35 146.29 0 145.74 0L145.74 0ZM168.94 0L163.44 0Q162.64 0 162.19-0.4 161.74-0.8 161.54-1.4L161.54-1.4 150.84-33.5Q150.74-33.75 150.74-33.95L150.74-33.95Q150.74-34.4 151.04-34.7 151.34-35 151.79-35L151.79-35 156.19-35Q156.89-35 157.26-34.63 157.64-34.25 157.74-33.9L157.74-33.9 166.19-8.15 174.64-33.9Q174.74-34.25 175.11-34.63 175.49-35 176.19-35L176.19-35 180.59-35Q180.99-35 181.31-34.7 181.64-34.4 181.64-33.95L181.64-33.95Q181.64-33.75 181.54-33.5L181.54-33.5 170.84-1.4Q170.64-0.8 170.19-0.4 169.74 0 168.94 0L168.94 0Z" opacity="1" transform="matrix(1,0,0,1,0,0)" fill="#0074d9" class="wordmark-text-0" data-fill-palette-color="primary" id="text-0"></path></svg></g></svg></g></svg></g></svg></g><g transform="matrix(1,0,0,1,127.66554552522788,0)"><svg viewBox="0 0 140.1889089495442 80.72279493670888" height="80.72279493670888" width="140.1889089495442"><g><svg xmlns="http://www.w3.org/2000/svg" xmlns:xlink="http://www.w3.org/1999/xlink" version="1.1" x="8" y="0" viewBox="4 20.100000381469727 92 59.80000305175781" enable-background="new 0 0 100 100" xml:space="preserve" height="80.72279493670888" width="124.18890894954421" class="icon-icon-0" data-fill-palette-color="accent" id="icon-0"><g fill="#7fdbff" data-fill-palette-color="accent"><polygon points="37,79.9 4,50 37,20.1 42.2,25.9 15.6,50 42.2,74.1  " fill="#7fdbff" data-fill-palette-color="accent"></polygon><polygon points="63,79.9 57.8,74.1 84.4,50 57.8,25.9 63,20.1 96,50  " fill="#7fdbff" data-fill-palette-color="accent"></polygon></g></svg></g></svg></g><g><rect width="127.66554552522788" height="7.023313992587342" y="72.69948094412153" x="267.85445447477207" fill="#7fdbff" data-fill-palette-color="accent"></rect><rect width="127.66554552522788" height="7.023313992587342" y="72.69948094412153" x="0" fill="#7fdbff" data-fill-palette-color="accent"></rect><rect width="127.66554552522788" height="7.023313992587342" y="58.65285295894685" x="267.85445447477207" fill="#7fdbff" data-fill-palette-color="accent"></rect><rect width="127.66554552522788" height="7.023313992587342" y="58.65285295894685" x="0" fill="#7fdbff" data-fill-palette-color="accent"></rect></g></svg></g><defs></defs></svg><rect width="395.52" height="176.98860243713082" fill="none" stroke="none" visibility="hidden"></rect></g></svg></g></svg>